<?xml version="1.0" encoding="UTF-8" standalone="no"?>
<!-- Created with Inkscape (http://www.inkscape.org/) -->

<svg
   version="1.1"
   id="svg1"
   width="1130"
   height="1012"
   viewBox="0 0 1130 1012"
   sodipodi:docname="seoul_map.svg"
   inkscape:version="1.3.2 (091e20e, 2023-11-25, custom)"
   xmlns:inkscape="http://www.inkscape.org/namespaces/inkscape"
   xmlns:sodipodi="http://sodipodi.sourceforge.net/DTD/sodipodi-0.dtd"
   xmlns="http://www.w3.org/2000/svg"
   xmlns:svg="http://www.w3.org/2000/svg">
  <defs
     id="defs1" />
  <sodipodi:namedview
     id="namedview1"
     pagecolor="#505050"
     bordercolor="#ffffff"
     borderopacity="1"
     inkscape:showpageshadow="0"
     inkscape:pageopacity="0"
     inkscape:pagecheckerboard="1"
     inkscape:deskcolor="#505050"
     inkscape:zoom="1.2031995"
     inkscape:cx="811.58611"
     inkscape:cy="448.38782"
     inkscape:window-width="1920"
     inkscape:window-height="1057"
     inkscape:window-x="-8"
     inkscape:window-y="-8"
     inkscape:window-maximized="1"
     inkscape:current-layer="g1"
     showgrid="false" />
  <g
     inkscape:groupmode="layer"
     inkscape:label="Image"
     id="g1">
    <path
       style="fill:#ffaaaa;stroke:none"
       d="m 768,884 c 16.04922,-3.28217 34.08928,-4.87373 45.74564,-17.86229 9.61797,-9.74994 23.19932,-20.87426 37.70319,-14.31193 16.359,3.45692 13.45146,21.32733 17.63328,33.22488 8.4589,13.24078 20.62199,25.85443 35.93504,30.58282 20.9692,3.14188 35.27058,-14.77327 51.86576,-23.86086 7.45578,-4.34441 20.96718,-1.31873 11.00375,-12.90144 -9.06862,-18.20698 -25.5675,-34.02002 -25.62942,-55.58575 -1.42904,-16.80179 -17.03423,-26.79006 -27.64041,-38.09774 -14.37149,-16.3297 -36.43331,-19.67207 -56.28862,-25.01771 -21.76014,-5.55032 -40.77961,-24.33918 -40.92573,-47.75688 -3.04394,-15.36305 7.87072,-40.78669 -13.84954,-45.07265 -32.16423,-14.72755 -64.11622,-37.22508 -101.24704,-33.45172 -15.31306,0.19566 -41.42756,7.6711 -36.39593,27.60557 5.23702,15.88236 16.05037,29.58268 18.2805,46.49422 7.0607,16.43787 18.93582,31.94974 16.47487,50.97144 -1.46674,15.51591 4.06602,31.83953 17.74911,40.29471 13.91594,9.5983 31.07949,18.18933 35.80965,35.93525 C 759.7673,851.18968 760.11329,868.78334 768,884 Z"
       id="path1" />
    <path
       style="fill:#ffaaaa;fill-opacity:1"
       d="m 881.39998,922.85196 c -7.50028,1.6221 -1.47862,11.05093 -5.09059,16.41457 -0.96024,7.04048 -6.017,11.00054 -13.29788,10.38897 -10.85157,-0.10129 -7.23192,14.96445 -15.58345,19.21959 -9.72819,6.21962 -22.03779,6.31655 -32.93303,9.35007 -7.05884,6.32582 -2.39016,17.99739 -6.75283,25.97244 -3.87999,11.8653 -19.75612,4.445 -28.77744,4.5711 -8.63938,0.4198 -15.15225,-3.5207 -20.98571,-9.24616 -7.28674,-7.28489 -28.72135,-9.1418 -25.34908,-21.92072 0.16888,-8.78502 -5.05456,-16.08256 -5.50615,-24.93352 -1.77282,-9.45239 -6.43179,-17.98505 -5.0906,-27.91955 1.36146,-12.27951 -1.29627,-24.30443 -2.7393,-36.60894 -7.83453,-5.66749 -22.09091,-4.09395 -31.54429,-1.54535 -9.34566,1.09693 -11.22464,13.31553 -20.77793,14.33678 -8.61874,1.80062 -10.3608,12.91724 -16.41457,15.99901 -7.67775,2.28673 -15.99716,-0.56359 -13.71344,-10.18119 -0.35685,-7.7601 -2.67613,-16.21433 -10.18119,-19.53126 -10.04451,-4.31747 -14.8641,6.03119 -19.53125,6.85672 -8.31697,-8.97352 -14.26198,-20.14856 -16.83013,-32.41358 -5.66311,-10.88149 -4.705,-23.47112 -8.93451,-35.11471 -0.29472,-12.6175 0.14612,-25.2591 1.4168,-37.46313 -0.77537,-13.07336 7.84561,-23.45899 6.47881,-36.50631 -4.95351,-9.13725 -8.35643,-21.35036 -21.01757,-18.90792 -6.26275,1.30755 -10.62898,-1.4809 -11.60379,-6.64894 -2.58003,-14.6741 24.40884,-7.52765 35.11471,-10.59675 11.57447,-1.62412 18.64248,-11.84555 27.84244,-18.0768 6.27092,-5.78569 12.19202,-13.74255 17.86902,-18.70014 6.72549,-5.88065 15.78405,-10.18436 18.49236,-18.90792 4.76486,-10.27425 5.19724,2.717 8.31118,6.85671 3.52505,4.85854 6.65814,11.30595 8.93451,16.62235 3.09166,11.69961 8.53739,23.07952 8.31117,35.53027 1.36061,7.46979 6.42408,12.47017 12.0512,17.24569 3.84519,4.01206 2.86368,10.38181 2.90891,16.53692 -0.25626,9.24886 -0.29636,18.76815 3.53225,27.09674 2.82421,12.36179 11.01983,23.27218 22.44017,28.05021 7.23294,5.46755 17.53364,7.57418 20.98572,16.62235 7.57462,11.28444 7.99372,26.189 12.64498,38.95003 3.14272,8.07585 2.09739,20.56731 11.6652,23.27988 9.35256,1.50498 16.72625,-6.3311 25.97242,-6.0256 5.59065,-2.20499 15.22412,-0.34369 15.68734,-7.79172 2.20766,-5.89249 9.08036,-7.58921 12.36287,-12.88232 6.0861,-3.38354 11.86076,-8.52899 19.53126,-7.37617 9.27679,-1.59916 19.24306,3.12305 20.88182,12.88232 4.7217,10.3758 0.51626,24.42783 11.53176,31.79024 7.30103,4.63208 13.63252,10.97546 18.70014,17.45346 4.00518,3.87615 -6.91152,1.37696 -8.83063,4.25948 -0.45061,1.09047 -2.44944,4.61672 -2.18168,3.0128 z"
       id="path3" />
    <path
       style="fill:#ffaaaa;fill-opacity:1"
       d="m 1020.716,684.52905 c -3.5103,7.57637 -6.6714,15.71497 -12.8823,21.60905 -6.4165,6.51494 -0.8157,12.66727 3.0128,17.63549 -0.018,5.50905 -1.4824,11.63704 2.5973,15.92088 5.0686,5.4472 12.5091,7.78699 19.1157,10.90841 7.413,1.98691 11.6314,4.93177 19.1157,5.92171 6.6092,0.65462 14.57,-0.77063 11.6356,9.24619 -3.6298,5.91021 -13.9614,5.54185 -15.7912,13.29787 -2.469,6.34477 -1.4289,13.42617 -3.6362,20.05071 -1.343,6.26148 -2.8766,12.83905 -6.9606,17.97291 -2.8162,5.05789 -7.5056,7.43448 -13.0901,8.1034 -6.3331,1.08643 -5.7064,10.05017 -8.9345,14.64844 -2.2081,5.02463 2.9667,10.68665 -1.6622,15.064 -5.1671,5.11556 -12.9992,2.26625 -19.53128,3.01281 -8.43788,-1.3811 -13.29827,6.48442 -14.96012,13.60954 -0.68624,3.03175 -3.96762,15.43726 -6.0256,10.90842 -1.27384,-4.05372 -2.90907,-7.05549 -5.29837,-10.80453 -2.90229,-7.10707 -6.63788,-12.56952 -10.59675,-18.38847 -3.65545,-6.90865 -10.45825,-12.90342 -8.93451,-21.40127 -1.12606,-8.18854 -3.23391,-16.37617 -6.23338,-24.10241 -4.61197,-6.03313 -12.27302,-8.71615 -16.20679,-15.37567 -5.82181,-4.23758 -9.195,-11.00713 -13.92121,-15.79123 -5.49397,-3.33756 -12.57389,-8.90374 -17.34958,-9.24618 -10.12455,-1.93246 -18.98045,-7.44745 -29.29689,-8.83062 -11.56016,-3.42468 -21.95083,-9.94775 -31.27079,-17.34958 -9.7538,-6.78017 -11.77798,-19.71521 -10.86481,-30.96144 -1.31525,-12.3426 -0.32885,-24.96533 -1.54255,-37.29051 6.87825,-5.22085 20.4879,-0.61116 29.86083,-1.76969 10.12172,2.43997 21.94642,0.84089 31.33247,-1.98039 11.91448,-2.63826 13.81745,-15.63366 24.38231,-20.6737 6.19148,-5.877 8.00201,-14.67581 16.38465,-17.44732 5.51163,-6.59477 8.37038,-14.25573 11.88671,-21.77787 5.30815,-6.75035 7.64495,-15.07049 13.46195,-21.28625 4.42769,2.16247 4.39079,9.30688 10.89639,7.32607 5.19432,-1.25301 7.05597,1.96431 6.70336,6.8001 2.28111,12.55053 -7.73986,22.43099 -9.10271,34.1321 0.17478,9.43267 12.3924,11.14752 15.19022,18.70047 5.83446,7.49753 5.97354,23.32519 18.63532,20.1546 5.74933,0.26148 14.36613,-2.00452 15.02493,5.61004 5.5297,-0.56922 10.0837,3.08589 14.8562,3.84392 z"
       id="path4" />
    <path
       style="fill:#ffaaaa;fill-opacity:1"
       d="m 1047.2079,614.40352 c 0.6919,8.34732 -1.5061,16.41157 -1.2467,24.72574 -1.0285,7.04805 -4.6904,12.57042 -7.2723,19.1157 -3.4101,5.27015 -7.0529,10.74379 -12.2589,14.33678 -1.4839,0.87718 -2.3617,10.57915 -7.7947,7.70327 -5.0602,0.30872 -9.9638,-1.66845 -12.7755,-5.62548 -4.8662,-2.39895 -12.22305,-3.4321 -18.47906,-3.42338 -6.12049,-3.03424 -6.1578,-11.03897 -9.36336,-16.52343 -2.18038,-6.29487 -7.26212,-10.32611 -12.84032,-13.72729 -3.49266,-5.80342 0.23113,-13.62302 2.45135,-19.30963 2.27339,-6.40428 4.23025,-12.75832 2.32406,-19.78254 1.06177,-7.69581 -2.53893,-10.24119 -10.0119,-10.55324 -6.55133,-1.92553 -11.83271,-10.00738 -7.89561,-15.79123 1.16888,-9.37012 3.39951,-17.84473 5.81782,-26.59576 4.06613,-7.93062 8.59731,-16.55049 16.35224,-21.8866 4.70351,-8.61784 13.63335,-11.17596 22.29472,-14.05923 7.51916,-4.3837 15.79126,-5.5675 23.89416,-8.2106 8.4509,0.7314 16.2347,-2.06796 24.5184,-2.8017 8.6107,-4.32934 18.5245,-6.60219 26.388,-12.46676 4.8404,-7.30176 11.6988,-8.35247 19.3235,-12.67454 5.0452,-0.6843 15.491,-10.36642 13.0067,0.5781 -4.0778,9.09644 5.2398,12.8378 11.3035,15.83646 4.5541,4.08418 10.2796,2.24995 8.4203,10.3863 6.0286,6.69535 4.57,15.05723 0.3064,22.23506 -1.5925,6.92819 -3.9602,14.127 -1.061,20.88418 2.2621,7.48838 0.1699,16.06763 3.1388,23.5806 3.2531,4.06908 4.9227,8.42935 0.6233,12.88232 -2.4792,7.69992 -11.4127,7.20435 -17.4759,10.45407 -7.3464,3.20312 -15.5459,4.60841 -22.8333,8.45385 -9.1076,1.59335 -16.9938,6.65796 -26.0455,8.13757 -4.1166,2.61124 -10.306,1.02022 -12.8092,4.12141 z"
       id="path5" />
    <path
       style="fill:#ffaaaa;fill-opacity:1"
       d="m 931.26702,539.39518 c 0.22261,7.26612 -1.43376,14.20421 -2.30208,21.29848 -0.0504,4.39556 -1.2181,7.29834 -3.30796,11.32288 -2.02154,7.81686 -5.1954,15.64682 -9.55785,22.64794 -4.06743,4.13977 -5.29376,10.69441 -9.76563,14.54456 -2.91083,5.86072 -6.67949,10.5171 -11.42786,14.96011 -3.43722,4.26914 -5.61557,9.48911 -9.09301,13.74604 -3.35809,3.66151 -6.67051,5.60678 -11.06159,7.23968 -5.81647,4.13961 -13.32921,3.83255 -20.1884,4.48188 -9.4102,0.072 -19.34838,0.28665 -28.43197,-0.11852 -5.54796,-0.67676 -10.56402,-4.06349 -16.01868,-4.57114 -5.54509,-1.11941 -14.28438,-2.74826 -9.3304,-9.97341 1.14809,-5.46848 2.31659,-10.09177 3.1167,-15.58345 0.29961,-4.91268 1.2198,-9.94352 1.96403,-14.47747 1.32413,-3.16325 4.86022,-6.06617 6.12622,-8.1442 2.27738,-3.55916 6.13867,-8.22782 7.70098,-11.03859 2.4834,-3.67896 5.25453,-8.74465 7.27227,-13.29788 2.52063,-5.48326 2.57564,-11.40486 3.32447,-17.0379 1.08844,-4.19226 2.1689,-8.90685 3.53225,-12.67454 1.59764,-4.92612 2.29713,-9.78775 3.61223,-14.652 2.37322,-5.16722 1.50637,-11.73327 5.1145,-16.72268 3.03399,-5.92021 7.18556,-11.44269 7.48006,-18.49236 0.2045,-4.97963 5.06596,-5.1613 9.09187,-4.77893 8.91618,-0.11062 17.93523,0.383 26.73249,-0.64491 3.44598,-0.72306 5.8374,-4.38302 9.05598,-6.00403 4.89042,-2.56513 10.49385,-3.77252 15.99901,-4.36336 6.27836,-2.83876 4.27799,3.6893 4.57114,7.30053 0.96224,5.15072 -4.2967,8.06315 -5.40226,12.4385 -2.01237,4.91748 -3.53844,11.00182 -1.45446,16.41457 2.00269,5.92667 1.2248,12.63493 2.90892,18.49236 0.72532,9.07987 9.9477,6.87166 16.62234,7.48006 0.99208,-0.27221 2.31269,-0.90697 3.11669,0.20778 z"
       id="path6" />
    <path
       style="fill:#ffaaaa;fill-opacity:1"
       d="m 839.42855,325.59023 c 0.12121,10.14104 -0.25483,20.33522 0.21385,30.43453 0.70609,7.15684 2.70267,13.93797 2.82425,21.20405 0.71815,7.83816 1.07882,10.75591 1.11749,19.0064 1.56634,6.63889 1.72637,13.53244 2.4015,20.36846 0.6335,5.33636 -0.1746,10.70202 1.14526,15.893 1.85683,7.61055 3.54973,15.15595 3.22568,23.0661 0.57069,6.88531 0.064,13.7748 1.95429,20.04415 0.76035,3.06788 -1.43427,9.06724 1.24668,10.18119 8.72411,-1.21851 17.72039,0.49159 26.38798,-1.0389 4.48377,-2.2876 10.13453,-5.63936 15.9047,-7.5622 5.62731,-3.21486 12.57613,-3.46501 19.00223,-4.489 5.62992,-0.92805 0.65398,-8.48413 -0.62334,-11.22009 -1.93923,-6.35674 4.76551,-10.19301 9.76563,-12.25898 4.77134,-2.37058 3.51687,-8.72414 6.23338,-12.67454 2.65383,-5.62601 8.62596,-8.99455 13.0901,-13.29787 4.062,-4.53384 3.75798,-9.91139 2.27276,-15.26858 -1.81561,-6.67945 0.8006,-11.81298 5.41507,-15.69055 2.97011,-6.12772 -0.80241,-12.55439 -3.94781,-17.66124 -2.166,-4.8111 -2.15081,-13.1966 3.18431,-16.48505 3.9275,-0.96707 5.02368,-6.17251 9.28245,-9.07181 -1.12924,-6.69978 3.72566,-11.61206 3.32447,-18.0768 -3.3835,-4.73657 -8.18886,-8.50287 -10.38896,-14.129 1.44393,-8.18397 -6.34634,-7.58815 -11.42787,-10.38897 -3.77924,-2.75715 -8.61108,-5.92357 -13.7515,-6.08171 -5.61005,2.07822 -11.2035,5.36263 -17.74455,4.41948 -10.41751,0.003 -20.83792,-0.004 -31.25331,0 -4.76281,4.2101 -11.47737,6.69528 -17.24569,9.76563 -4.52677,1.37154 -9.21505,5.09503 -13.71343,7.68783 -2.57786,0.85417 -5.12747,2.59578 -7.89562,3.32447 z"
       id="path7" />
    <path
       style="fill:#ffaaaa;fill-opacity:1"
       d="m 906.95684,37.192503 c 0.60705,8.412057 -3.00765,16.507751 -6.93464,23.660872 -4.95316,3.990915 -8.93195,12.32153 -5.11656,17.894997 0.66958,8.945904 10.08296,14.800045 14.75233,22.232388 5.96314,6.40858 9.17941,18.80558 2.07779,25.34908 -8.88708,3.19919 -12.63753,12.20484 -11.42786,21.13299 2.24288,7.93107 -3.46135,12.58694 -5.93001,18.51879 0.4113,9.43527 -1.03045,19.9852 5.72223,27.46095 4.4709,8.26317 14.69722,7.71375 23.32969,8.67363 8.7877,2.04905 19.87421,3.14369 19.14332,14.49756 1.97373,7.85035 0.89406,16.54476 6.53325,23.06501 2.21176,7.56499 0.39587,17.43931 -3.52746,22.80786 -6.22156,6.32958 -21.70697,7.29961 -19.71416,19.8855 -0.72413,6.36341 10.16893,14.23099 -2.01102,15.28678 -4.71746,2.43544 -10.88875,3.39893 -17.06152,2.79002 -9.46747,-0.47503 -17.67242,2.93165 -27.47003,1.87002 -6.02651,0.83167 -10.33475,6.69984 -15.79123,8.72673 -7.52494,2.11795 -14.70702,5.84692 -20.98572,10.80453 -6.20327,3.6823 -14.49482,-0.81265 -21.19349,-2.0778 -8.43998,-0.97696 -16.09936,-5.92529 -20.57016,-12.88232 -4.29984,-7.86039 -10.91062,-14.7187 -14.75233,-22.64795 -7.70473,-9.62448 -12.90605,-20.26677 -20.36237,-30.128 5.95634,0 11.91268,0 17.86902,0 1.46161,-7.85356 1.66117,-15.9909 2.70113,-23.89463 -0.56259,-8.85638 7.60464,-13.82686 7.89562,-22.44017 0.57604,-9.11595 0.40878,-18.18342 2.40615,-27.09528 -0.0611,-11.85933 1.43179,-24.6162 2.19031,-35.47555 -4.28719,-5.81372 -6.08065,-12.3196 -9.16761,-18.67089 -2.31238,-7.15656 -5.86033,-15.60922 -4.32474,-22.19436 3.68334,-8.535234 -0.69234,-19.403931 3.90918,-27.049344 4.77137,-9.216271 10.5441,-18.762801 9.54267,-29.60171 -1.11708,-8.584947 -0.10374,-19.025154 9.78081,-20.680891 8.207,-3.611 17.32463,-6.011348 22.85573,-13.921216 4.64712,-6.8968328 16.41228,-11.9415606 23.47906,-5.4022632 4.67451,6.8001222 12.88474,9.5548322 17.86903,14.7523332 5.80819,3.863516 9.58161,7.594929 14.75233,10.388967 4.49828,4.389182 14.74884,1.244151 19.53126,4.363367 z"
       id="path8" />
    <path
       style="fill:#ffaaaa;fill-opacity:1"
       d="m 789.76929,205.07821 c -0.0205,4.58434 -3.85752,9.47758 -5.19448,14.54456 -4.43498,4.95183 -4.45307,11.61878 -4.15559,17.93219 0.94649,7.56618 2.67323,16.43671 -8.06674,13.31946 -9.87635,2.29495 -12.63644,-7.63213 -18.54478,-12.74421 -5.20999,-5.87804 -10.80942,-11.69268 -15.22172,-17.80416 -6.28264,-6.05584 -10.20009,-12.43154 -14.89052,-19.19564 -3.53452,-5.41334 -7.90991,-11.32798 -14.27166,-13.7348 -5.73151,-2.27221 -13.91647,-2.16392 -19.65449,-6.34215 -4.50952,-4.56982 -10.08949,-8.34215 -12.86864,-14.35851 -3.28307,-6.54342 -15.67843,-6.41777 -12.83788,-16.05493 1.9595,-4.9732 2.75253,-10.78396 4.46682,-16.65059 -0.0842,-8.99158 -0.69874,-18.00762 -0.10346,-26.98307 3.96889,-8.57265 2.83883,-18.886463 1.66224,-27.84243 -1.68898,-6.821321 -0.351,-14.457158 -3.86386,-20.694438 -0.23702,-4.864213 7.28571,-6.890599 6.35721,-13.381374 1.3739,-6.911992 0.85899,-15.374128 3.21542,-21.315344 1.8784,-6.858769 2.46862,-14.6689888 8.00466,-19.4094078 7.80468,-1.3244826 16.46612,0.2205515 24.51797,0 5.92267,0.1848213 17.62836,-6.8120397 20.77793,1.2466761 -0.98205,9.2423787 2.29807,19.3202207 12.67454,20.1545967 9.06089,1.268398 18.25919,1.012098 27.42687,1.038896 6.11888,3.848531 11.39675,8.938534 18.90792,10.388968 7.17593,-2.853464 4.00739,3.363903 3.52149,6.116887 -0.63787,5.24536 -0.52175,10.585336 -0.82035,15.907723 -2.96013,7.970743 -6.81823,15.921526 -8.51896,24.517963 -3.08086,10.319278 -2.11663,21.294684 -2.28557,31.998024 1.57414,8.18162 6.4322,14.95923 9.33181,22.76559 3.72826,5.77359 2.54961,13.60814 2.71939,20.51567 -0.27977,10.52193 0.7094,21.2108 -0.82278,31.54177 -0.27227,2.86464 -2.24666,10.21658 -1.46279,14.52208 z"
       id="path9" />
    <path
       style="fill:#ffaaaa;fill-opacity:1"
       d="m 623.75359,247.04964 c 8.75916,2.7201 12.58699,12.53576 21.40128,15.16789 6.7835,6.37633 15.62061,11.14887 22.85572,17.03791 3.4236,4.62139 4.49685,11.81432 7.27228,17.24569 3.02019,5.36861 3.6534,11.62276 5.40226,17.24568 -1.00953,7.46455 4.28295,15.59847 12.70531,13.50566 16.36356,-0.25542 32.81024,0.5644 49.10905,-0.51945 4.1509,-4.42981 13.17666,-3.35212 14.44066,-9.97341 7.25312,-11.10118 11.336,-23.83096 18.59974,-34.9536 1.88869,-5.86996 -5.12869,-10.57478 -8.16532,-14.99532 -8.66149,-5.85525 -12.04535,-16.27835 -18.68275,-23.98288 -5.88107,-7.83492 -12.29318,-15.70379 -17.75394,-23.47299 -7.23361,-2.9968 -10.48666,-11.84469 -14.69221,-18.36527 -3.44461,-6.98614 -9.00925,-11.71548 -17.04184,-11.70272 -8.3519,-0.36055 -15.94596,-5.12254 -20.57024,-11.95175 -7.19241,-4.44693 -10.70669,-9.56401 -15.57375,-15.8676 -4.78786,-5.39319 -1.86572,-13.29628 -1.3223,-19.54065 0.18358,-7.68558 0.88396,-14.77403 1.90969,-22.24593 0.26461,-8.42287 2.69656,-16.67726 2.15166,-25.572132 0.26911,-10.927388 0.26631,-22.791393 -2.56722,-32.606082 -0.54341,-12.974981 -11.48262,0.830599 -18.21928,2.206282 -6.01381,5.199541 -18.24647,1.563789 -15.86517,12.418071 -0.7098,8.813309 -2.10816,14.674952 -4.27571,23.016442 -3.55508,8.365059 -6.34923,18.600989 -13.16912,25.108569 -5.27823,8.13753 -13.43405,14.42529 -10.75872,25.25386 -0.12356,24.16489 0.0106,48.3642 -0.051,72.50705 -4.40176,3.37706 -6.39183,5.69152 -1.13763,9.7649 3.01595,3.8809 4.75678,10.46351 10.90841,9.86952 3.93789,1.74137 11.0166,2.64235 13.0901,5.40226 z"
       id="path10" />
    <path
       style="fill:#ffaaaa;fill-opacity:1"
       d="m 750.29121,407.4553 c -8.08236,5.53572 -11.08161,5.03873 -17.86902,9.35007 -5.30715,4.38251 -14.83661,6.45742 -17.86902,12.46676 -4.94898,8.13002 -3.26952,19.97031 -11.22009,27.01131 -5.42455,2.1031 -12.07344,0.60888 -18.05606,0.99707 -7.93207,-1.34312 -21.66189,1.14744 -21.66085,-9.9941 -4.30813,-3.6711 -6.97052,-9.3689 -9.31901,-15.10537 -3.30709,-6.26287 -7.41729,-12.58472 -9.97341,-18.49236 -2.96296,-10.93249 -9.6149,-19.55846 -21.60905,-20.77794 -8.90852,-2.51372 -17.56062,-5.39838 -26.59576,-5.61004 -11.6307,0.78248 -8.59834,-10.84702 -8.31117,-19.1157 9.41077,-2.11074 13.26136,-5.56159 18.49236,-13.29788 2.48855,-7.85619 0.1423,-17.09416 0,-25.34908 -2.06367,-4.90969 -4.15803,-12.35945 -7.27228,-17.45346 -4.10256,-6.90188 -6.84093,-15.19183 -8.51895,-23.27129 -2.98935,-10.12294 -2.3976,-21.16803 -8.1034,-30.54356 -1.05397,-5.60133 -3.39945,-10.69677 -9.97341,-12.25899 -9.17626,-3.55174 7.16499,-0.81487 10.38897,-2.28557 7.03825,1.49059 7.67081,-15.61425 11.63565,-11.0123 3.91104,12.01062 16.64593,11.64818 26.38797,15.99901 7.05824,5.3223 15.00845,9.13561 20.1546,16.41456 7.16301,6.28718 15.55795,10.661 22.44017,17.24569 4.59078,5.91768 4.57876,14.26053 7.0645,20.98571 2.52286,5.53559 2.43607,12.19784 4.36336,17.24569 0.13362,7.41429 6.63696,8.94689 11.84342,12.46676 3.70285,0.9702 10.98572,1.89803 17.50832,1.45446 11.34146,-0.25625 22.80589,0.9788 33.6054,-2.28558 6.83974,-0.37861 14.10351,-2.06891 18.49237,-6.85672 4.39817,-3.91949 5.89872,-7.04516 8.31117,-11.84342 2.73393,-7.20517 4.90183,-14.64714 9.35007,-20.98571 3.01621,-4.2166 3.90367,-16.54443 7.0645,-5.61004 6.3265,8.92699 12.82835,18.07069 17.66124,28.25799 6.0227,6.48383 15.68535,10.1235 24.72574,9.35007 9.63627,-2.7201 14.24735,5.67349 12.88232,14.20739 0,5.51465 0,11.0293 0,16.54395 -9.84706,1.72216 -20.02063,3.01706 -29.71244,5.61004 -10.35658,2.18253 -20.66765,4.40171 -30.75135,7.27228 -6.76342,5.41042 -11.96226,13.66231 -15.37567,21.60905 -1.7091,6.45727 -4.41904,14.11386 -10.18119,17.66125 z"
       id="path11" />
    <path
       style="fill:#ffaaaa;fill-opacity:1"
       d="m 833.19517,523.81173 c -4.40197,-2.06013 -8.68564,-5.0164 -12.88232,-6.0256 -4.67705,-2.58682 -10.972,-3.03762 -15.79123,-4.98671 -6.80083,-1.26492 -13.24829,-4.00749 -19.73903,-6.44116 -6.45671,-0.3194 -13.314,-1.84413 -14.129,-9.14229 -1.68954,-4.99465 -1.4904,-11.09686 -5.81782,-15.16789 -8.88641,-1.28348 -18.00313,0.1744 -27.00868,-0.2648 -4.31266,0.86095 -12.01325,0.0297 -11.4305,6.08262 -4.76538,4.69329 -12.86874,2.39063 -18.12091,0.34467 -5.05764,-2.12031 -5.76135,-6.69028 -4.9426,-11.91357 0.2515,-4.03186 -1.09159,-9.04531 2.0778,-11.91016 1.91165,-6.44626 6.84778,-10.81884 8.32,-17.5885 1.16478,-6.01029 3.72407,-11.27623 7.67901,-16.27954 5.1551,-2.5118 10.47096,-5.14046 15.1534,-7.74419 5.81727,-2.52772 7.48739,-3.94447 12.27347,-6.80036 5.0719,-1.7158 8.58201,-4.69839 10.80452,-9.35007 3.55654,-5.05447 5.77888,-10.7091 9.1423,-15.99901 2.29923,-7.17224 6.29048,-13.96411 14.12899,-16.62235 6.09146,-4.0295 13.42242,-5.15602 20.25583,-7.16428 6.49028,-0.66956 13.26243,-2.65285 19.22225,-4.26358 5.5623,-1.34403 16.4444,-9.03613 14.72796,2.09604 1.14801,6.58116 0.40747,13.49914 1.47883,20.13635 0.48029,5.7098 0.79413,11.89899 1.87001,17.86902 0.21719,6.40032 1.95863,12.2884 1.83859,18.71977 0.35514,6.79069 1.64625,13.29044 2.10922,20.13497 0.26243,6.49395 0.83024,11.2261 1.66223,17.66124 0.77926,4.74426 0.8413,9.67964 2.0254,14.59653 0.99004,5.75251 4.9398,11.72616 -0.0108,16.99261 -3.72848,6.91439 -6.92474,14.21356 -9.28693,21.60237 -1.89592,3.95044 -3.8717,7.52766 -5.61004,11.42787 z"
       id="path12" />
    <path
       style="fill:#ffaaaa;fill-opacity:1"
       d="m 794.13266,637.46703 c -0.45357,-3.4895 2.25754,-7.05612 2.90891,-10.38897 1.95066,-4.53886 2.38745,-9.57145 4.15558,-13.50565 -0.13281,-6.67603 0.43848,-14.30409 5.1882,-18.81035 4.04199,-2.21662 5.26225,-8.07722 8.45349,-11.64995 4.21388,-5.50265 6.45655,-11.92233 9.21404,-18.16007 2.70037,-5.02836 2.39992,-11.22025 3.74003,-16.20679 1.69335,-4.59138 2.99677,-10.56507 4.15559,-15.58345 2.44518,-5.40751 -2.56395,-6.53606 -6.80961,-8.25282 -10.17332,-3.99705 -21.89053,-4.06886 -31.00623,-10.23954 -5.08828,-2.29155 -10.96547,-4.77233 -15.58346,-6.64894 -3.22642,-0.56957 -5.46649,-3.17553 -7.5144,0.37475 -0.57703,-6.06954 -4.35286,-11.00104 -5.22083,-16.9982 0.14637,-8.25765 -9.35921,-5.45899 -15.0908,-6.0245 -5.86336,0.14754 -11.86329,-0.31391 -17.62467,0.26993 -2.36685,5.79315 -6.81743,12.95454 -14.38975,11.15793 -5.30958,-1.35522 -11.55252,-0.85947 -14.57882,-6.25708 -0.93533,-3.64817 0.2619,5.95134 -0.15248,8.44218 -0.55075,6.20238 1.1899,13.33014 -2.51438,18.59284 -1.93694,3.65183 -3.9237,6.56141 -6.23338,9.76563 -2.42532,4.29054 -6.38955,7.57591 -10.18119,10.80452 -4.36587,4.14287 -8.54266,9.05278 -10.76276,15.03407 -2.61801,6.40866 -5.03445,12.98073 -8.14516,19.04175 -4.49441,5.96232 0.8129,13.10413 2.07779,19.32347 1.35824,6.30497 4.57235,12.31209 5.76445,18.61406 0.56152,5.82888 9.5788,3.0747 12.93569,1.74832 7.08867,-1.92279 15.70652,-0.495 23.26779,-1.98125 8.23295,-0.64462 17.20713,-0.14859 25.76814,-0.30432 5.59256,1.34428 10.00186,4.33507 15.06267,6.51073 6.96831,1.78069 13.23161,5.71553 19.84426,8.44938 5.22243,1.90713 11.01738,5.00145 15.37567,8.72673 3.11076,0.82949 4.42038,4.78357 7.89562,4.15559 z"
       id="path13" />
    <path
       style="fill:#ffaaaa;fill-opacity:1"
       d="m 670.9195,613.57241 c -3.50269,3.86139 -8.24484,6.18886 -12.0512,9.9734 -6.22292,2.59553 -10.11872,8.60889 -14.79888,13.26155 -2.00686,6.64567 -8.32144,10.50543 -12.41412,14.78031 -5.40666,6.15368 -12.25038,10.52969 -17.96922,15.91005 -3.35604,5.62309 -9.25192,9.45968 -12.78821,14.64187 -4.53564,5.6885 -10.64161,11.32094 -18.07681,12.67454 -6.37869,2.42447 -13.55354,0.89216 -20.27251,1.15539 -7.92081,0.59066 -15.27119,-2.24142 -22.53003,-4.27208 -6.22387,-0.9238 -9.91877,-7.15684 -14.14267,-11.52486 -5.73269,-5.8893 -10.43401,-12.49363 -17.02423,-17.56425 -2.82523,-3.40712 -7.79514,-9.38295 -10.78218,-14.16655 -5.36304,-4.59184 -8.28196,-10.46174 -13.11245,-15.33812 -6.90899,-4.22401 6.58568,-6.51923 8.19146,-11.1368 6.85361,-4.73584 10.43385,-12.83041 16.53428,-18.16008 5.05749,-4.81997 9.16214,-10.12294 12.46676,-15.99901 4.246,-6.24871 5.86694,-13.50572 8.31118,-20.36238 1.68461,-3.82806 2.84119,-5.27397 3.53225,-9.97341 0.49471,-8.15322 11.15299,-2.86849 16.55741,-4.36336 7.50387,0.92712 16.49265,-2.01686 22.62353,-2.52001 9.57925,-1.24651 19.33253,-0.52661 28.97068,-0.80446 2.94206,4.96966 7.34895,9.28209 12.25898,11.84342 7.74325,1.8309 16.13574,-0.36943 23.89463,2.07779 6.16448,0.0602 10.47161,2.25158 14.12899,7.0645 8.00863,1.31115 9.48295,8.89475 10.79518,15.395 1.45578,5.36791 2.41577,8.8741 4.16494,14.73301 1.12157,4.2134 2.64382,8.38276 3.53224,12.67454 z"
       id="path14" />
    <path
       style="fill:#ffaaaa;fill-opacity:1"
       d="m 546.04412,497.63153 c -3.29134,5.05507 -7.54309,9.46611 -11.22009,14.129 -2.66792,3.23661 -5.54582,4.60047 -9.14229,6.0256 -3.21962,2.8717 4.51737,10.06304 3.35795,12.34036 2.17109,4.6507 4.02018,11.11709 6.1999,16.33319 -0.24001,6.61975 10.44601,1.53902 14.86753,2.35196 7.11376,-0.70593 14.17693,-1.44168 21.54649,-0.97822 6.23886,-0.86054 12.55312,-0.66143 18.85529,-1.16596 4.65832,0.28016 12.40393,-5.45407 13.71343,2.07779 1.34361,3.86525 5.47139,6.08982 8.93142,8.42103 5.07435,2.50316 11.01622,3.26893 16.62627,4.09446 6.16968,0.55283 11.1288,-1.45002 17.1869,-1.51537 5.41912,1.693 7.43183,8.62525 13.38584,10.40824 1.86379,0.46073 1.28266,-7.08522 4.33336,-8.9416 1.35348,-5.33424 5.09905,-11.14325 7.0645,-15.37567 2.83792,-2.2615 2.89428,-5.96064 6.20039,-7.42271 5.38677,-2.66286 7.21695,-4.78518 11.46086,-8.99186 4.00404,-3.7915 6.14572,-9.21246 7.48005,-14.33677 1.58925,-5.78197 2.87294,-11.73285 2.70113,-17.82116 -0.22842,-3.3167 0.55883,-7.2932 -0.62333,-10.02128 -8.51929,0.16738 -17.09644,-0.38732 -25.56487,0.396 -5.90686,0.54388 -11.60068,1.2107 -17.53357,1.05846 -4.56032,0.0839 -9.32154,-0.40953 -13.62533,1.0389 -6.97124,0.38188 -13.51003,2.92585 -20.77793,2.28557 -6.87812,2.09161 -14.16065,1.17175 -21.26551,1.61745 -4.76169,-1.78395 -6.98568,-7.37992 -10.73251,-10.34418 -6.2913,-1.15896 -11.91106,1.29815 -17.45346,3.9478 -3.59587,1.80001 -7.77067,2.81626 -10.59675,4.57115 -4.88477,2.9174 -10.08405,3.51127 -15.37567,5.81782 z"
       id="path15" />
    <path
       style="fill:#ffaaaa;fill-opacity:1"
       d="m 665.10168,458.56901 c -5.61072,-5.47486 -8.84188,-12.9318 -13.60954,-19.21959 -1.38471,-6.44275 -4.94916,-11.70723 -8.36391,-17.07343 -1.9939,-4.05866 -4.422,-10.17642 -6.49232,-15.02847 -0.90016,-5.1924 -6.72923,-6.69765 -10.49285,-9.35007 -6.89332,-1.13994 -13.61249,-5.71243 -21.48156,-4.77008 -7.43419,-0.72326 -15.6231,-1.92463 -21.68456,-6.50195 0.0651,-6.60768 -0.35122,-13.49933 0.93492,-19.84302 4.64897,-1.12541 10.12581,-3.20122 12.76083,-6.8522 5.75126,-6.44549 8.86838,-15.98894 5.10824,-24.26267 -1.44696,-6.27654 -3.43117,-12.36008 -6.33722,-18.18069 -4.30766,-7.87655 -5.05425,-16.92881 -8.05139,-25.24519 -0.28178,-9.93956 -3.358,-19.41276 -7.06456,-28.56966 -1.22059,-4.33462 -2.19549,-8.71175 -6.02569,-11.37592 -5.82457,-6.41471 -15.39047,-9.45544 -23.68681,-6.49311 -5.69651,1.9364 -15.30164,1.29434 -16.83012,7.89562 -2.48355,6.84737 -5.03353,13.43909 -12.25898,16.93402 -5.86535,3.53343 -7.15992,10.7902 -8.3788,16.76984 -0.25812,10.82081 -1.35725,21.51274 -0.97128,32.40203 -0.20475,15.97819 0.45054,32.09545 -0.41555,47.96497 0.74677,4.33582 9.5414,5.47535 13.50565,9.14229 2.73601,6.70494 3.44084,15.52734 4.57115,21.40127 1.57443,3.46223 2.36806,6.81449 2.07779,11.47275 -0.23203,6.19237 -4.79817,11.24062 -5.19448,17.61636 -1.88025,7.20509 -4.00458,14.33917 -6.54505,21.29739 -1.64762,6.96981 -4.20873,14.93 1.66223,20.98571 3.91905,5.68424 5.99288,10.49444 11.73954,14.54455 2.99232,4.16929 7.63497,7.26917 11.63564,10.28508 3.53581,1.94769 8.37158,-2.74282 12.46676,-4.0517 7.24733,-2.78877 15.10273,-5.35103 21.71294,-9.35007 5.60713,-3.93947 13.16241,-3.50663 18.07681,1.35057 5.11409,6.70888 13.89246,5.21811 21.34226,5.50615 10.11667,0.69089 19.79458,-2.79914 29.77146,-3.22058 14.69829,-0.65412 29.5098,-0.15432 44.257,-0.31167 4.63571,0.7995 10.577,1.54563 8.41506,-5.01876 0.3306,-5.95436 0.5647,-12.0772 -0.20778,-17.94085 -5.13477,-1.53815 -11.11569,-0.35024 -16.61464,-0.72723 -6.83009,1.01034 -12.97067,-2.10101 -19.64286,-1.76613 l 0.36059,-0.50769 -0.88003,-0.11565"
       id="path16" />
    <path
       style="fill:#ffaaaa;fill-opacity:1"
       d="m 379.5,368.62776 c 2.51555,-13.90537 0.83078,-28.3455 1.3223,-42.50459 -0.38136,-12.50117 -4.78119,-25.20705 -2.6446,-37.568 6.73294,-6.52248 11.32709,-10.54682 9.2561,-20.73366 -0.43396,-13.56074 1.6745,-27.03184 4.11382,-40.23905 1.68993,-5.10597 1.40991,-13.892 1.46922,-20.71603 1.87561,-5.15899 -1.39017,-14.17386 2.65342,-16.74912 12.33222,-0.31487 24.78211,0.72645 37.01557,-0.73462 6.74438,-2.34964 6.81423,-13.76653 15.87201,-10.43147 7.90205,-0.51332 17.58013,2.26605 22.89,-5.31346 7.07936,-5.63677 12.00965,-13.30273 16.18689,-21.13253 4.27845,-2.73757 16.19877,9.03924 22.18525,13.07607 6.86336,6.86149 11.01259,14.74054 19.66405,19.26545 7.89252,4.06409 13.32529,10.46201 11.33653,19.55727 -0.17826,8.59237 2.88368,17.13253 -0.20013,25.83233 -1.5734,5.94222 -3.13878,8.44345 -5.67676,13.36063 -1.564,7.89113 -7.14837,12.60855 -12.28568,18.6323 -5.22248,6.40587 -10.70709,13.98987 -12.83801,22.21207 -2.35653,9.61927 -3.64609,19.81901 -3.68693,29.92434 -0.53574,1.54157 -0.17262,9.41035 -0.27997,13.59989 -0.0113,6.40362 0.0161,12.81199 0,19.21154 -9.32898,-1.1324 -16.89926,4.27584 -23.50755,10.13763 -7.51986,3.87942 -8.67612,11.97311 -10.5784,19.39373 -3.78848,8.17056 -17.88723,5.41108 -24.82985,12.04762 -6.83543,5.14821 -4.1807,20.17293 -14.01006,20.98885 -11.64201,-0.77791 -22.84496,2.7183 -34.47426,1.93101 -8.36891,1.67166 -12.13775,9.48301 -16.6022,15.57375 -6.95371,3.01252 -0.10727,23.40981 -7.9338,15.57375 -5.46484,-7.86935 -14.61438,-11.3973 -22.03833,-16.74913 -5.51528,-4.34736 -10.60356,-7.34237 -13.66376,-14.54529 -5.13317,-5.36946 -13.58071,-7.13729 -17.48374,-13.66377 -2.52855,-3.66167 10.94077,4.7985 14.54763,1.83959 6.64061,0.2962 14.00827,1.30951 20.37794,-0.20104 4.0083,-7.39913 8.52607,-11.92778 13.55875,-18.97536 2.12163,-5.43785 8.58476,-7.3793 10.28455,-11.9007 z"
       id="path17" />
    <path
       style="fill:#ffaaaa;fill-opacity:1"
       d="m 506.58769,526.56911 c 5.26627,-6.11669 13.01891,-9.97882 19.39373,-14.83914 4.4863,-2.50072 9.7234,-4.4025 11.87311,-9.39559 5.36508,-4.38672 0.49745,-8.35355 -4.08624,-10.87968 -5.43939,-5.16844 -11.85933,-9.52157 -16.49463,-15.61536 -4.50052,-5.30875 -7.71481,-12.00302 -4.95601,-18.91135 1.81488,-6.85238 2.71904,-10.62473 3.9669,-16.89605 2.80676,-5.23329 5.22745,-11.49332 6.02381,-16.74913 0.95226,-5.29085 5.64485,-10.35475 4.11382,-16.16144 -1.84029,-7.14461 -2.5819,-14.6137 -4.70151,-21.59756 -1.81125,-6.62837 -7.65175,-9.28434 -13.36991,-11.60685 -1.54571,-6.19432 -1.1437,-12.94368 -2.6446,-19.24681 -0.44814,-8.20902 -11.2892,0.86521 -16.08507,2.09021 -5.0908,0.55347 -5.57044,5.98111 -8.2404,9.44118 -3.48365,5.40972 -4.4926,11.9454 -8.5851,16.97152 -2.83055,3.63283 -8.62305,5.82722 -13.42624,6.36339 -5.21306,1.08831 -11.5163,0.7803 -11.9913,7.74113 -2.0669,4.58261 -4.38028,8.83759 -6.75842,13.07608 -0.80711,3.37973 -5.77537,1.10028 -8.64701,1.76307 -6.2636,0.30007 -12.63477,-0.42639 -18.53359,1.02845 -8.69712,0.36662 -19.60764,-1.5387 -23.65448,8.52149 -3.33659,4.81948 -7.88718,9.39629 -8.29746,15.27229 -0.0386,4.86169 -0.094,9.73067 -0.0982,14.60594 4.8889,2.96983 6.87789,8.91844 12.65641,10.96613 3.1781,3.49421 5.22855,7.6814 9.69686,11.16609 3.86995,2.4257 8.78737,6.05011 12.34146,9.99071 3.13575,3.45824 7.46552,3.9531 10.47845,7.44786 3.13022,5.60084 7.92043,9.53646 12.58834,13.85586 3.94512,4.22426 8.60466,7.11408 12.19454,11.45993 6.06432,5.59867 15.06167,2.9035 22.40335,5.37385 7.64475,2.5693 15.10155,0.41199 22.9956,2.2661 3.30734,1.43757 6.67696,1.7181 9.84379,2.49768 z"
       id="path18" />
    <path
       style="fill:#ffaaaa;fill-opacity:1"
       d="m 287.08595,431.8043 c -10.37977,0.6583 -21.0458,-0.73342 -30.55982,1.02845 -3.54697,5.98028 -9.46324,10.61504 -17.04297,13.95761 -0.99264,10.02178 14.006,9.75934 17.48374,18.07143 5.52392,5.29188 11.13533,11.08831 13.95761,18.21835 1.75645,6.26614 5.87489,9.67648 9.10917,15.42683 4.17451,4.33859 9.52207,8.90592 14.98606,13.07607 12.20577,11.39015 25.46151,21.41265 38.05285,32.32288 5.50706,8.23546 15.22787,11.42779 22.77294,17.1899 10.06948,3.97726 19.51301,9.05021 29.53136,13.07607 8.45155,3.44451 16.64124,7.81181 24.68292,11.9007 7.30529,5.19367 15.02978,4.81515 21.56902,8.88974 11.56417,5.56666 25.00195,8.16119 34.00274,17.95941 5.20646,2.04291 11.62972,15.297 14.80397,11.93831 5.66489,-8.0864 15.58764,-13.66941 22.47909,-21.30372 6.19923,-8.06642 12.61658,-15.19695 18.5122,-24.38908 3.83022,-6.78097 5.69608,-16.07437 7.19611,-22.64796 2.39944,-12.76289 -4.71207,-23.87512 -6.90227,-35.97399 -6.83658,3.25567 -12.68654,10.94035 -21.04301,9.71606 -14.41513,-0.67629 -28.77812,-3.302 -43.01506,-5.3084 -7.60527,0.8301 -11.12003,-8.78201 -17.63066,-12.04762 -6.09061,-5.14348 -11.79771,-10.88345 -16.89605,-16.89605 -8.77448,-6.28885 -14.70025,-15.71922 -24.09524,-21.30371 -6.70888,-6.21778 -13.51437,-12.29158 -19.98142,-18.65912 -5.48053,-8.7329 -15.9793,-12.1317 -24.09523,-17.63066 -4.54048,-6.57361 -9.06578,-12.02787 -13.81069,-16.89605 -5.66029,-2.98115 -7.36058,-11.11722 -12.48838,-12.04762 -8.61372,1.77778 -8.08666,-11.53949 -14.83915,-15.27991 -7.3951,8.14698 -7.50168,20.6784 -17.33681,26.73984 -4.21436,2.47625 -6.40172,8.47825 -9.40302,10.87224 z"
       id="path19" />
    <path
       style="fill:#ffaaaa;fill-opacity:1"
       d="m 418.25982,615.44242 c -0.22888,2.79427 0.36734,5.66066 0.92547,8.49862 -0.0171,2.47652 0.76948,4.69599 0.89269,7.10421 0.11583,2.48104 1.20294,4.8716 1.05748,7.36841 0.63661,2.79178 2.4637,5.65941 4.27571,8.01598 1.16396,2.43678 3.28161,4.15262 4.48429,6.62084 1.75642,2.25573 3.22485,4.81732 6.17437,5.76737 3.53451,2.07174 7.20263,3.89147 10.96948,5.50299 2.70011,1.42067 5.82677,1.45108 8.82857,1.81974 2.08115,0.39252 4.14942,0.90088 6.30389,0.62334 5.26811,-0.13203 10.55293,0.35756 15.80464,-0.16278 1.89253,0.27773 3.60258,-0.63728 1.35925,-2.06562 -2.067,-2.7351 -5.24652,-4.59052 -6.9441,-7.54136 -1.87872,-1.81953 -3.24346,-3.9441 -4.77951,-6.06778 -2.16975,-2.24793 -4.21342,-4.74222 -5.91078,-7.44617 -1.93344,-2.4266 -4.62732,-4.13355 -6.81156,-6.33731 -2.28154,-2.13712 -5.04674,-3.6574 -7.51533,-5.51115 -2.0386,-1.52276 -3.96196,-3.32029 -6.36577,-4.27746 -2.16724,-1.65821 -4.73564,-2.73332 -6.45745,-4.88892 -2.30819,-1.20325 -4.1542,-3.0635 -6.37233,-4.24114 -2.45376,-1.5974 -5.56104,-2.22234 -8.42125,-2.7835 -0.49924,-0.0109 -0.9985,0.002 -1.49776,0.002 z"
       id="path20" />
    <path
       style="fill:#ffaaaa;fill-opacity:1"
       d="m 586.35331,757.97905 c -3.81388,-6.18815 -4.33177,-17.79655 -12.36376,-18.90075 -6.98728,-1.40038 -15.45379,-1.44028 -18.59536,-5.40943 -2.63369,-3.85366 0.0785,-13.22103 -6.23338,-14.129 -8.12494,-2.23924 -16.4552,-3.94552 -23.89463,-8.31117 -6.38058,-5.15586 -11.50049,-11.62457 -16.83012,-17.45347 -5.12383,-4.77364 -7.52768,-10.95355 -13.71344,-14.54455 -16.61113,-0.22874 -33.35608,0.55787 -49.86704,-0.62334 -9.97234,-3.66772 -10.19199,10.00334 -15.16789,15.16789 -2.66496,6.01004 -7.51207,11.79234 -9.97341,18.07681 -0.5951,6.23184 -4.62827,13.38806 -3.94781,20.57015 -0.53169,7.34744 -0.51719,10.78589 -2.49335,16.83013 -1.36551,5.03267 -4.01205,10.12527 -6.23338,14.75233 -5.75202,4.52744 -14.53806,6.25853 -21.40128,9.35007 -5.17236,1.82837 -11.14412,3.58899 -13.29787,9.35007 -5.34897,3.90047 -8.28393,15.68721 -4.57115,19.1157 6.92412,-1.56267 14.10752,-7.18203 18.70014,-13.0901 6.65801,-2.62088 15.45418,0.67924 21.84109,-4.32033 8.8748,-2.88225 7.41308,-17.83246 18.56549,-17.08833 21.16331,0.11106 42.32401,-0.10717 63.48309,-0.20039 10.46498,2.59757 21.97165,3.56912 30.54357,10.80453 3.14023,7.75607 3.70163,15.78622 5.61004,23.89462 2.48508,6.20471 1.56923,13.65347 6.44116,18.70014 4.2945,4.99672 9.8574,9.58369 13.29788,15.16789 4.41239,4.11944 11.33266,2.61002 17.2648,2.90892 6.13275,1.81483 11.78993,-3.53591 15.96708,-4.57446 2.90032,-3.02655 -6.53921,-9.28956 -5.18167,-14.74902 -0.93888,-8.98388 -0.15368,-18.16386 -0.41556,-27.2191 0.69175,-9.06349 4.93458,-17.41324 6.69156,-26.25464 1.6925,-1.86279 3.11399,-9.01507 5.7752,-7.82117 z"
       id="path21" />
    <path
       style="fill:#ffaaaa;fill-opacity:1"
       d="m 571.18542,923.99475 c -6.96644,6.69884 -12.05085,15.04505 -19.53126,21.40127 -7.25357,7.03514 -14.78332,14.39672 -23.90314,19.09475 -6.46311,2.77702 -13.52491,7.36917 -18.27607,13.11105 -13.43027,2.98342 -27.07717,-0.004 -40.68565,0.62334 -8.2556,-0.0395 -15.32571,0.0802 -22.68705,-3.53225 -7.65803,-2.02167 -10.39922,-7.12414 -13.50565,-14.33678 -1.99827,-7.47186 -3.24394,-16.92694 -13.50566,-16.20679 -10.14202,1.76895 1.10551,-7.10895 -3.94733,-12.73194 0.0668,-10.81598 -10.0898,-13.99484 -17.45394,-16.35717 -2.38748,-6.04653 -7.05635,-10.54837 -7.21182,-17.13153 -0.79419,-10.25077 -2.64246,-19.93398 -4.08109,-30.22978 0.67619,-8.47146 -0.9012,-16.79815 -1.17385,-25.18179 -0.0675,-7.89116 0.42614,-16.21461 -1.0389,-23.65873 -5.39128,-3.09281 -13.1908,-2.0765 -15.79123,-8.72673 -5.62945,-9.51329 11.00172,-5.7278 14.30639,-12.20417 2.487,-3.2919 5.18461,-9.14501 11.3067,-7.11931 5.24876,-0.0732 10.50443,0.0654 15.735,0.20778 6.52185,-2.01652 13.9841,-8.97731 12.88232,-17.45347 7.54855,-4.0795 21.54415,-0.95994 31.59183,-2.28557 11.73016,-0.21918 23.5954,0.60905 35.10534,-0.83112 6.1049,-0.35671 11.49595,5.72947 15.70815,6.9187 5.23607,2.25027 10.25661,4.9867 10.67982,11.57366 1.82577,7.44593 3.42458,14.7649 5.40227,22.23239 2.73033,5.27816 2.27625,11.38362 6.31729,15.9179 3.39448,6.55557 10.56301,11.72905 17.16177,15.249 6.85083,4.75979 17.23003,3.12204 24.51797,0.62334 3.17235,-0.13692 11.4187,-9.00771 10.80452,-3.32447 -1.48422,8.94512 3.29909,15.75632 6.23338,23.68685 3.38678,7.2473 7.19037,14.62235 12.14706,21.20706 1.65453,4.74593 11.53285,14.81551 0.94304,13.69987 -8.39158,3.48385 -15.37936,13.60731 -22.85573,20.36237 -1.44476,2.00153 -3.28417,3.78523 -5.19448,5.40227 z"
       id="path22" />
    <path
       style="fill:#ffaaaa;fill-opacity:1"
       d="m 340.75813,978.84849 c 7.73674,0.2219 14.94745,3.16852 22.78817,2.54448 6.076,0.77341 10.75428,-2.80421 15.651,-5.66117 4.32818,-2.98877 9.33336,-0.68313 10.30574,-7.43972 -0.10837,-7.54201 2.97236,-13.97782 8.64514,-18.87907 2.90169,-2.83281 5.39905,-4.37155 9.72718,-6.21337 4.61762,-4.48503 3.68165,-16.67173 -3.51225,-17.95571 -5.37855,-1.79858 -11.0831,-6.15159 -13.36375,-12.24271 -2.27047,-4.83831 -4.73651,-11.19398 -5.00501,-15.69607 -1.36811,-6.5203 -1.1099,-13.1317 -3.4535,-19.444 -2.4968,-5.19144 -1.14407,-11.53827 -1.47353,-17.36106 -0.0153,-4.18425 0.0226,-8.37523 0,-12.55258 -1.33553,-6.09836 -1.41249,-13.02307 -2.28557,-19.50529 0.53259,-5.3585 0.52633,-8.51938 -5.40227,-8.96048 -7.20217,-0.6533 -6.05584,-11.93929 -10.38896,-13.50566 -3.91018,3.8409 -9.36008,1.97675 -13.71344,-0.62334 -5.53102,-0.96309 -5.98229,-9.79371 -11.22009,-9.14229 -4.07269,3.42653 -8.71773,5.88529 -14.13034,7.71178 -7.19603,2.37221 -15.28414,1.96737 -22.93132,2.3363 -6.67285,1.24941 -17.30713,-1.8979 -21.25236,1.16672 3.07801,6.47595 4.60775,13.38425 7.62195,20.07425 2.04033,5.01117 4.83501,10.21347 5.60396,15.66908 2.06305,8.46887 4.38955,16.5065 6.64894,24.93352 2.40894,2.84461 -0.93697,10.01122 3.32022,10.23243 5.29112,0.0612 11.22946,-1.59448 10.80877,3.27323 3.42162,3.79102 5.64863,9.63172 6.07154,15.29385 1.47282,5.08069 3.78719,9.89486 4.73299,15.04193 0.92403,6.72967 2.48727,13.69843 5.81782,19.94682 1.41049,6.56078 4.72022,12.66744 6.36703,19.19041 1.1106,8.04312 3.29123,15.88716 3.78018,24.00221 -0.61857,1.63515 1.06429,2.20009 0.24176,3.76551 z"
       id="path23" />
    <path
       style="fill:#ffaaaa;fill-opacity:1"
       d="m 404.13083,760.05684 c 2.85747,-5.22744 2.07784,-12.64913 3.9478,-18.49236 1.13524,-9.98699 4.64508,-19.42436 9.14229,-28.25799 0.72825,-6.50848 4.29189,-11.55805 6.51836,-17.62053 2.1894,-6.71905 12.52889,-14.1874 11.44997,-20.81051 -7.1539,-1.6272 -12.72197,-6.07802 -17.34499,-11.85156 -3.36224,-5.62377 -8.34979,-11.33513 -10.18119,-17.24569 -1.93941,-6.42173 -3.47338,-11.93732 -2.64285,-19.64823 1.31193,-10.22569 -1.81033,-17.94882 -11.27836,-22.73875 -7.06095,-5.17021 -15.80543,-6.38111 -23.27129,-10.18119 -8.4339,-4.68804 -18.9976,-5.41407 -26.80353,-11.01231 -7.21991,-3.15671 -14.10572,-6.99339 -20.36238,-11.42786 -5.59264,-4.57264 -9.11057,-9.67799 -13.56061,-15.14759 -3.75018,-3.14095 -13.70409,-9.62231 -9.91846,-0.0203 0.71676,4.50465 1.99568,9.47247 3.74003,12.88232 2.38434,5.72996 4.97681,11.68743 7.27228,17.24568 5.24143,6.20081 7.98701,13.26881 10.73525,20.65523 2.03647,6.54593 1.0092,13.54157 1.9932,20.2118 -2.90617,7.61033 -13.59786,9.31873 -17.71515,16.27229 -4.09423,3.61723 -5.23447,10.28272 -4.77893,16.0981 -0.009,8.46168 0.31527,16.83244 -1.24668,25.04221 -2.03064,10.98392 12.86411,13.307 20.07514,18.43203 7.61308,3.7642 5.25304,14.86141 10.08898,21.34434 2.32115,8.09436 1.22554,17.10656 4.32726,24.84301 5.84404,5.72636 4.90221,15.14734 7.06449,22.85573 0.17457,6.73664 -0.30302,13.9522 0.20778,20.36237 6.11054,4.05482 10.80255,13.77429 19.94682,12.05121 2.33414,-6.85449 2.68755,-14.75961 3.32447,-22.44017 2.03779,-6.30109 7.60698,-8.98871 14.12899,-11.63565 3.87802,-1.78483 10.87085,-4.4187 16.74849,-3.7722 4.68414,1.36698 6.57668,-2.75877 8.39282,-5.99343 z"
       id="path24" />
    <path
       style="fill:#ffaaaa;fill-opacity:1"
       d="m 148.97779,675.90621 c -1.88604,-9.78025 -0.72277,-20.09591 -1.0389,-30.13243 0.19201,-12.83905 -0.43444,-25.80802 0.42397,-38.53337 2.84355,-7.40815 -2.43618,-13.30848 -6.44957,-19.22486 -4.87995,-5.5592 1.9663,-9.79822 4.36337,-14.54456 2.5493,-6.20892 13.29712,-3.41872 18.4527,-2.72135 3.62979,6.65844 8.10549,13.456 10.36977,20.91804 1.59412,4.94999 3.34511,12.60719 7.16063,18.30834 3.24135,4.64284 5.36017,10.31122 10.97503,12.5309 4.80499,2.45904 10.30803,2.35282 15.58345,5.40226 4.41858,0.61118 11.01748,3.68175 17.7711,2.7551 5.97652,-1.55176 10.69771,-6.43025 16.92805,-7.32625 3.94528,-1.40465 6.63795,-7.42985 8.31118,-11.84342 2.34174,-5.20181 4.77049,-10.51145 7.48005,-15.79123 2.31958,-7.45345 0.13206,-15.93797 2.28558,-23.68684 1.45,-5.24976 4.93628,-12.6656 11.88221,-10.66338 7.45123,0.0665 10.06512,2.48361 16.58356,3.3911 4.61877,0.36137 11.04471,-1.07573 10.59674,5.81782 2.29002,5.77219 4.06798,11.68396 6.44116,17.24569 2.25747,6.22046 6.04727,11.086 9.14229,16.62234 2.78214,5.84742 1.77912,10.80544 3.11669,17.45347 2.00768,6.15138 -6.8865,6.76714 -10.18118,10.18119 -8.23416,2.23533 -10.59378,9.81942 -12.03916,16.93313 -1.58986,5.93729 -1.95685,11.9977 -3.75208,17.9738 -1.5797,7.02917 -0.52135,14.42557 -0.83111,21.63734 0.78215,5.03128 2.39482,11.59891 -1.50024,16.4178 -3.29411,7.06222 -9.94483,12.90934 -18.44658,10.98078 -5.96458,-0.20587 -12.06461,0.59139 -17.66124,-0.83112 -7.0566,-0.37751 -8.03408,-6.41051 -10.21689,-11.8889 -3.24585,-4.45925 -3.88425,-11.89246 -11.39217,-10.55126 -4.37254,-0.51807 -12.09022,-1.9311 -18.69858,-1.54489 -4.8651,3.51978 -8.95276,10.58517 -13.29943,15.05054 -4.96529,3.83552 -12.32552,6.0255 -18.0104,7.92745 -7.18802,4.70869 -16.5891,1.53811 -18.47407,-7.10699 -2.34248,-7.29712 -10.27672,-7.61688 -16.71556,-8.03934 -5.11597,0.0166 -15.02914,-1.80828 -6.84821,-7.32567 4.86808,-4.13102 10.5424,-10.35093 8.51896,-17.24569 -0.37844,-1.38177 -2.24829,1.09922 -0.83112,1.45446 z"
       id="path26" />
    <path
       style="fill:#ffaaaa;fill-opacity:1"
       d="m 229.18062,802.65161 c 3.26455,-8.24002 3.07037,-17.88439 9.08397,-25.16991 4.93601,-5.97491 10.71831,-8.01436 19.17402,-7.03589 6.62195,1.98411 11.66644,5.02102 16.3001,9.78837 3.79889,3.08352 5.18723,8.26731 4.47783,13.36796 -2.79643,9.9294 10.36577,6.21396 16.31671,8.66083 9.45884,0.72531 18.96279,-0.0401 27.93025,-2.76647 6.0401,-1.75765 17.66414,-2.284 16.00385,-11.45028 -0.51833,-8.64411 -3.24992,-17.05314 -2.68085,-25.87747 -0.35864,-5.54743 -2.6914,-8.70336 -5.20956,-13.53977 -3.0048,-6.80154 -5.43752,-13.64287 -7.05639,-21.01496 -2.42902,-8.54457 0.75136,-21.18304 -10.67675,-22.97711 -4.74699,-2.5435 -9.5154,-8.08713 -14.46137,-9.03027 -1.49468,7.1456 -3.21574,15.08563 -9.56914,19.56986 -5.85061,4.44087 -11.00248,3.30868 -17.24569,5.61005 -7.80073,2.88785 -15.76518,-1.29855 -23.27128,-3.11669 -5.08993,-1.25252 -5.96976,-7.14102 -7.68784,-11.22009 -2.25455,-5.45668 -3.22066,-11.87443 -11.22538,-9.47284 -7.60058,-2.88989 -13.92715,1.02347 -17.03261,6.77171 -7.03874,3.19932 -13.40143,7.78379 -18.8997,13.47927 -5.335,3.86655 -13.15579,1.82131 -19.7478,2.31196 -3.66121,-0.51136 -9.34309,1.72046 -10.18065,-2.90891 -4.46196,-5.45853 -2.42672,-15.35981 -9.14229,-12.88232 -4.77478,-1.00076 -14.94496,-3.27647 -10.80452,3.53225 0.46307,7.23673 1.72737,15.46422 -3.11669,21.40127 -2.42216,6.32847 -6.18929,11.59437 -8.1034,17.86903 -1.11251,7.391 -5.46412,12.62878 -7.5962,19.55381 -1.83147,9.12396 6.14304,15.22939 10.08955,22.41761 3.43028,6.37729 6.65751,12.74639 1.44607,19.07527 -2.95863,4.35132 -5.70014,9.09912 -7.05611,15.4161 -0.80898,6.6717 -9.57084,16.03024 -7.61463,21.16493 7.46595,0.762 15.70803,1.87056 22.57475,-2.04923 7.09033,-1.70454 15.41137,-3.25902 20.98571,2.0778 6.22575,0.53711 14.09049,1.40704 21.28607,2.06217 8.13353,0.2495 10.4274,-11.17857 18.17066,-13.86441 4.0807,-3.97863 8.53505,-9.2505 13.10592,-13.92185 3.28742,-2.62487 5.53505,-7.60345 7.90114,-10.6373 1.39622,-1.17786 3.79548,-8.08178 3.53225,-5.19448 z"
       id="path27" />
    <path
       style="fill:#ffaaaa;fill-opacity:1"
       d="m 57.658768,575.13323 c 4.632627,6.2843 9.346606,13.19377 10.077298,21.29738 3.219717,13.2893 8.364457,0.48855 13.297879,-4.88282 6.217457,-7.68304 13.235442,-15.14309 23.894625,-11.22008 10.19948,1.8731 20.708,2.20371 31.1669,1.9739 6.76066,-4.04643 3.49607,-17.27682 12.74634,-16.41456 7.28004,-0.28735 14.51143,0.0437 20.70614,3.53224 6.18895,6.82379 5.93912,16.53462 11.42786,23.79074 4.72257,8.00421 8.45125,16.59299 14.12899,23.89462 6.26975,7.83065 16.57512,6.10573 25.45297,6.23338 7.34027,-3.26912 14.51694,-2.36984 21.1935,-6.85671 5.22836,-6.01409 9.92684,-13.16202 13.0901,-20.57016 3.0156,-9.39607 -1.03839,-20.24477 3.63614,-29.193 3.97169,-5.9278 7.38594,-12.58664 15.68734,-8.72673 5.83905,2.30408 10.86514,4.38951 17.66887,2.70113 5.42812,-0.95207 0.89248,-16.43195 -3.3321,-19.42737 -3.41159,-6.80416 -12.4808,-7.5505 -16.22745,-14.32427 -11.57068,-7.27022 -22.25758,-15.8238 -26.22828,-29.63408 -6.30174,-8.58711 -10.36194,-19.32473 -18.90876,-25.93527 -2.62241,-5.25732 -10.56411,-5.94621 -14.89053,-9.89364 -6.97192,-3.99205 -13.38342,-6.0282 -20.1546,-11.01231 -9.87645,-5.23654 -13.41841,-15.95508 -20.67404,-23.68685 -1.99977,-6.58464 -8.09714,-8.62958 -13.29788,-12.36287 -6.23109,-8.19116 -14.70644,-14.62933 -19.32348,-24.1024 -6.36432,-10.07095 -17.4006,-19.00598 -28.12229,-26.1781 -9.40911,-3.33275 -16.644287,-11.04638 -25.796448,-14.44276 -3.926542,3.81533 -8.513122,9.43069 -8.331397,15.77648 0.08676,8.48233 7.195158,15.09548 7.713411,23.58101 1.178772,6.04264 4.239849,13.52217 -0.146925,19.17316 -3.68058,8.26575 -10.536501,13.30727 -18.144889,17.998 -7.2806,1.79846 -5.903452,11.04778 -7.41957,16.82256 -1.466955,9.36261 1.748801,21.7215 -8.080722,27.40102 -8.246236,3.41181 -17.367007,5.62395 -25.050232,9.91733 0.176524,13.71195 -9.788078,24.99242 -9.84378,38.78734 -0.576115,3.98561 -8.162659,5.25779 -11.3130147,8.59506 0.640091,7.2379 5.266256,14.8066 5.8768867,22.62602 -1.0381668,10.94542 15.752416,6.34595 22.332173,11.97408 8.311547,4.41437 19.14257,5.37417 25.188965,12.78853 z"
       id="path28" />
  </g>
</svg>
